<mxfile host="app.diagrams.net" modified="2023-03-23T18:15:33.013Z" agent="Mozilla/5.0 (X11; Linux x86_64) AppleWebKit/537.36 (KHTML, like Gecko) Chrome/110.0.0.0 Safari/537.36" etag="eXXqU0omQA-gnsajwNT9" version="21.1.0" type="device">
  <diagram name="PÃ¡gina-1" id="RcCndMtqExNu23G7Ztjg">
    <mxGraphModel dx="2053" dy="658" grid="1" gridSize="10" guides="1" tooltips="1" connect="1" arrows="1" fold="1" page="1" pageScale="1" pageWidth="827" pageHeight="1169" math="0" shadow="0">
      <root>
        <mxCell id="0" />
        <mxCell id="1" parent="0" />
        <mxCell id="bW3uQ6ZptBKdeBj17jD9-41" value="" style="rounded=0;whiteSpace=wrap;html=1;" parent="1" vertex="1">
          <mxGeometry x="-80" y="250" width="1070" height="760" as="geometry" />
        </mxCell>
        <mxCell id="k7B5L6wM-mRPpXex12W7-85" value="" style="group" parent="1" vertex="1" connectable="0">
          <mxGeometry x="60" y="310" width="820" height="640" as="geometry" />
        </mxCell>
        <mxCell id="k7B5L6wM-mRPpXex12W7-58" value="" style="group" parent="k7B5L6wM-mRPpXex12W7-85" vertex="1" connectable="0">
          <mxGeometry x="199" y="450" width="160" height="80" as="geometry" />
        </mxCell>
        <mxCell id="k7B5L6wM-mRPpXex12W7-59" value="" style="shape=cube;whiteSpace=wrap;html=1;boundedLbl=1;backgroundOutline=1;darkOpacity=0.05;darkOpacity2=0.1;direction=south;size=10;" parent="k7B5L6wM-mRPpXex12W7-58" vertex="1">
          <mxGeometry width="160" height="80" as="geometry" />
        </mxCell>
        <mxCell id="k7B5L6wM-mRPpXex12W7-60" value="Google" style="text;html=1;align=center;verticalAlign=middle;resizable=0;points=[];autosize=1;strokeColor=none;fillColor=none;" parent="k7B5L6wM-mRPpXex12W7-58" vertex="1">
          <mxGeometry y="10" width="60" height="30" as="geometry" />
        </mxCell>
        <mxCell id="k7B5L6wM-mRPpXex12W7-61" value="Google Firebase" style="rounded=0;whiteSpace=wrap;html=1;" parent="k7B5L6wM-mRPpXex12W7-58" vertex="1">
          <mxGeometry x="30" y="40" width="100" height="30" as="geometry" />
        </mxCell>
        <mxCell id="k7B5L6wM-mRPpXex12W7-82" value="1" style="text;html=1;align=center;verticalAlign=middle;resizable=0;points=[];autosize=1;strokeColor=none;fillColor=none;" parent="k7B5L6wM-mRPpXex12W7-58" vertex="1">
          <mxGeometry x="81" y="10" width="30" height="30" as="geometry" />
        </mxCell>
        <mxCell id="k7B5L6wM-mRPpXex12W7-62" value="" style="group" parent="k7B5L6wM-mRPpXex12W7-85" vertex="1" connectable="0">
          <mxGeometry x="80" y="90" width="420" height="330" as="geometry" />
        </mxCell>
        <mxCell id="k7B5L6wM-mRPpXex12W7-63" value="" style="shape=cube;whiteSpace=wrap;html=1;boundedLbl=1;backgroundOutline=1;darkOpacity=0.05;darkOpacity2=0.1;direction=south;" parent="k7B5L6wM-mRPpXex12W7-62" vertex="1">
          <mxGeometry width="420" height="330" as="geometry" />
        </mxCell>
        <mxCell id="k7B5L6wM-mRPpXex12W7-64" value="" style="group" parent="k7B5L6wM-mRPpXex12W7-62" vertex="1" connectable="0">
          <mxGeometry x="40" y="80" width="320" height="220" as="geometry" />
        </mxCell>
        <mxCell id="k7B5L6wM-mRPpXex12W7-65" value="" style="rounded=0;whiteSpace=wrap;html=1;" parent="k7B5L6wM-mRPpXex12W7-64" vertex="1">
          <mxGeometry width="320" height="220" as="geometry" />
        </mxCell>
        <mxCell id="k7B5L6wM-mRPpXex12W7-66" value="UI" style="rounded=0;whiteSpace=wrap;html=1;" parent="k7B5L6wM-mRPpXex12W7-64" vertex="1">
          <mxGeometry x="100" y="30" width="120" height="40" as="geometry" />
        </mxCell>
        <mxCell id="k7B5L6wM-mRPpXex12W7-67" style="edgeStyle=orthogonalEdgeStyle;rounded=0;orthogonalLoop=1;jettySize=auto;html=1;exitX=0.5;exitY=1;exitDx=0;exitDy=0;entryX=0.5;entryY=0;entryDx=0;entryDy=0;dashed=1;" parent="k7B5L6wM-mRPpXex12W7-64" source="k7B5L6wM-mRPpXex12W7-66" target="k7B5L6wM-mRPpXex12W7-68" edge="1">
          <mxGeometry relative="1" as="geometry" />
        </mxCell>
        <mxCell id="k7B5L6wM-mRPpXex12W7-68" value="Business Logic" style="rounded=0;whiteSpace=wrap;html=1;" parent="k7B5L6wM-mRPpXex12W7-64" vertex="1">
          <mxGeometry x="100" y="140" width="120" height="40" as="geometry" />
        </mxCell>
        <mxCell id="k7B5L6wM-mRPpXex12W7-69" value="&lt;font style=&quot;font-size: 20px;&quot;&gt;APP&lt;/font&gt;" style="text;html=1;strokeColor=none;fillColor=none;align=center;verticalAlign=middle;whiteSpace=wrap;rounded=0;" parent="k7B5L6wM-mRPpXex12W7-64" vertex="1">
          <mxGeometry width="60" height="40" as="geometry" />
        </mxCell>
        <mxCell id="k7B5L6wM-mRPpXex12W7-75" value="*" style="text;html=1;align=center;verticalAlign=middle;resizable=0;points=[];autosize=1;strokeColor=none;fillColor=none;" parent="k7B5L6wM-mRPpXex12W7-64" vertex="1">
          <mxGeometry x="220" y="130" width="30" height="30" as="geometry" />
        </mxCell>
        <mxCell id="k7B5L6wM-mRPpXex12W7-74" value="*" style="text;html=1;align=center;verticalAlign=middle;resizable=0;points=[];autosize=1;strokeColor=none;fillColor=none;" parent="k7B5L6wM-mRPpXex12W7-64" vertex="1">
          <mxGeometry x="160" y="180" width="30" height="30" as="geometry" />
        </mxCell>
        <mxCell id="k7B5L6wM-mRPpXex12W7-70" value="&lt;font style=&quot;font-size: 20px;&quot;&gt;Smartphone&lt;/font&gt;" style="text;html=1;strokeColor=none;fillColor=none;align=center;verticalAlign=middle;whiteSpace=wrap;rounded=0;" parent="k7B5L6wM-mRPpXex12W7-62" vertex="1">
          <mxGeometry y="20" width="129" height="60" as="geometry" />
        </mxCell>
        <mxCell id="k7B5L6wM-mRPpXex12W7-71" value="" style="group" parent="k7B5L6wM-mRPpXex12W7-62" vertex="1" connectable="0">
          <mxGeometry x="339.9998319327733" y="30" width="40.42016806722689" height="78.75" as="geometry" />
        </mxCell>
        <mxCell id="k7B5L6wM-mRPpXex12W7-72" value="" style="rounded=0;whiteSpace=wrap;html=1;strokeColor=none;" parent="k7B5L6wM-mRPpXex12W7-71" vertex="1">
          <mxGeometry y="5.624999999999999" width="40.42016806722689" height="67.5" as="geometry" />
        </mxCell>
        <mxCell id="k7B5L6wM-mRPpXex12W7-73" value="" style="verticalLabelPosition=bottom;verticalAlign=top;html=1;shadow=0;dashed=0;strokeWidth=1;shape=mxgraph.android.phone2;strokeColor=#c0c0c0;gradientColor=none;" parent="k7B5L6wM-mRPpXex12W7-71" vertex="1">
          <mxGeometry width="40.42016806722689" height="78.75" as="geometry" />
        </mxCell>
        <mxCell id="k7B5L6wM-mRPpXex12W7-76" value="" style="group" parent="k7B5L6wM-mRPpXex12W7-85" vertex="1" connectable="0">
          <mxGeometry x="560" y="260" width="200" height="120" as="geometry" />
        </mxCell>
        <mxCell id="XfK04eqQb6r8-4QtdCH4-4" value="" style="group" vertex="1" connectable="0" parent="k7B5L6wM-mRPpXex12W7-76">
          <mxGeometry x="-15" y="-10" width="200" height="120" as="geometry" />
        </mxCell>
        <mxCell id="k7B5L6wM-mRPpXex12W7-77" value="" style="shape=cube;whiteSpace=wrap;html=1;boundedLbl=1;backgroundOutline=1;darkOpacity=0.05;darkOpacity2=0.1;direction=south;size=10;" parent="XfK04eqQb6r8-4QtdCH4-4" vertex="1">
          <mxGeometry width="200" height="120" as="geometry" />
        </mxCell>
        <mxCell id="k7B5L6wM-mRPpXex12W7-79" value="IMDB API" style="rounded=0;whiteSpace=wrap;html=1;" parent="XfK04eqQb6r8-4QtdCH4-4" vertex="1">
          <mxGeometry x="37.5" y="60" width="125" height="45" as="geometry" />
        </mxCell>
        <mxCell id="k7B5L6wM-mRPpXex12W7-78" value="IMDB" style="text;html=1;align=center;verticalAlign=middle;resizable=0;points=[];autosize=1;strokeColor=none;fillColor=none;" parent="XfK04eqQb6r8-4QtdCH4-4" vertex="1">
          <mxGeometry y="11" width="50" height="30" as="geometry" />
        </mxCell>
        <mxCell id="k7B5L6wM-mRPpXex12W7-83" value="1" style="text;html=1;align=center;verticalAlign=middle;resizable=0;points=[];autosize=1;strokeColor=none;fillColor=none;" parent="XfK04eqQb6r8-4QtdCH4-4" vertex="1">
          <mxGeometry x="7.5" y="81" width="30" height="30" as="geometry" />
        </mxCell>
        <mxCell id="k7B5L6wM-mRPpXex12W7-80" value="" style="endArrow=none;html=1;rounded=0;exitX=1;exitY=0.5;exitDx=0;exitDy=0;entryX=0;entryY=0.5;entryDx=0;entryDy=0;" parent="k7B5L6wM-mRPpXex12W7-85" source="k7B5L6wM-mRPpXex12W7-68" target="k7B5L6wM-mRPpXex12W7-79" edge="1">
          <mxGeometry width="50" height="50" relative="1" as="geometry">
            <mxPoint x="620" y="250" as="sourcePoint" />
            <mxPoint x="670" y="200" as="targetPoint" />
          </mxGeometry>
        </mxCell>
        <mxCell id="k7B5L6wM-mRPpXex12W7-81" value="" style="endArrow=none;html=1;rounded=0;entryX=0.5;entryY=1;entryDx=0;entryDy=0;exitX=0.5;exitY=0;exitDx=0;exitDy=0;" parent="k7B5L6wM-mRPpXex12W7-85" source="k7B5L6wM-mRPpXex12W7-61" target="k7B5L6wM-mRPpXex12W7-68" edge="1">
          <mxGeometry width="50" height="50" relative="1" as="geometry">
            <mxPoint x="238" y="510" as="sourcePoint" />
            <mxPoint x="300" y="380" as="targetPoint" />
          </mxGeometry>
        </mxCell>
        <mxCell id="k7B5L6wM-mRPpXex12W7-84" value="Deployment View" style="shape=umlFrame;whiteSpace=wrap;html=1;pointerEvents=0;width=150;height=50;" parent="k7B5L6wM-mRPpXex12W7-85" vertex="1">
          <mxGeometry width="820" height="640" as="geometry" />
        </mxCell>
      </root>
    </mxGraphModel>
  </diagram>
</mxfile>
